<svg width="24" height="25" viewBox="0 0 24 25" fill="none" xmlns="http://www.w3.org/2000/svg">
<path d="M23.5972 11.3736L19.9598 7.4675V2.95525C19.9598 2.13937 19.3442 1.47817 18.5833 1.47817C17.8242 1.47817 17.2086 2.13937 17.2086 2.95525V4.51297L14.5003 1.60443C13.1613 0.167258 10.8333 0.169807 9.49731 1.60704L0.402658 11.3736C-0.134219 11.9513 -0.134219 12.8861 0.402658 13.4629C0.939778 14.0405 1.8119 14.0405 2.34883 13.4629L11.4426 3.69605C11.7389 3.37957 12.261 3.37957 12.5557 3.69511L21.651 13.4629C21.9207 13.7517 22.2724 13.8954 22.6239 13.8954C22.9761 13.8954 23.3283 13.7516 23.5972 13.4629C24.1343 12.8861 24.1343 11.9514 23.5972 11.3736Z" fill="white"/>
<path d="M12.4773 6.49981C12.2131 6.21621 11.7852 6.21621 11.5218 6.49981L3.52212 15.0882C3.39582 15.2237 3.32422 15.4089 3.32422 15.602V21.8661C3.32422 23.336 4.43402 24.5277 5.80271 24.5277H9.76336V17.9407H14.2349V24.5277H18.1956C19.5642 24.5277 20.674 23.336 20.674 21.8661V15.602C20.674 15.4089 20.603 15.2237 20.4761 15.0882L12.4773 6.49981Z" fill="white"/>
</svg>
